{
    "asset" : {
        "generator" : "Khronos glTF Blender I/O v1.5.17",
        "version" : "2.0"
    },
    "scene" : 0,
    "scenes" : [
        {
            "name" : "Scene",
            "nodes" : [
                0,
                1,
                2
            ]
        }
    ],
    "nodes" : [
        {
            "mesh" : 0,
            "name" : "bike"
        },
        {
            "mesh" : 1,
            "name" : "person"
        },
        {
            "mesh" : 2,
            "name" : "tronCircle"
        }
    ],
    "materials" : [
        {
            "doubleSided" : true,
            "name" : "gloss",
            "pbrMetallicRoughness" : {
                "baseColorFactor" : [
                    0.0310636218637228,
                    0.0310636218637228,
                    0.0310636218637228,
                    1
                ],
                "metallicFactor" : 0,
                "roughnessFactor" : 0.30664652585983276
            }
        },
        {
            "doubleSided" : true,
            "emissiveFactor" : [
                1,
                1,
                1
            ],
            "name" : "light",
            "pbrMetallicRoughness" : {
                "baseColorFactor" : [
                    0.800000011920929,
                    0.800000011920929,
                    0.800000011920929,
                    1
                ],
                "metallicFactor" : 0,
                "roughnessFactor" : 0.5
            }
        },
        {
            "doubleSided" : true,
            "name" : "steel",
            "pbrMetallicRoughness" : {
                "baseColorFactor" : [
                    0.7921630144119263,
                    0.7921630144119263,
                    0.7921630144119263,
                    1
                ],
                "metallicFactor" : 1,
                "roughnessFactor" : 0.0890783816576004
            }
        },
        {
            "doubleSided" : true,
            "name" : "wheel",
            "pbrMetallicRoughness" : {
                "baseColorFactor" : [
                    0.0435100719332695,
                    0.0435100719332695,
                    0.0435100719332695,
                    1
                ],
                "metallicFactor" : 0,
                "roughnessFactor" : 0.4909365177154541
            }
        },
        {
            "doubleSided" : true,
            "name" : "personMat",
            "pbrMetallicRoughness" : {
                "baseColorFactor" : [
                    0.14731433987617493,
                    0.12768584489822388,
                    0.0948583334684372,
                    1
                ],
                "metallicFactor" : 0,
                "roughnessFactor" : 0.5
            }
        }
    ],
    "meshes" : [
        {
            "name" : "Plane.004",
            "primitives" : [
                {
                    "attributes" : {
                        "POSITION" : 0,
                        "NORMAL" : 1,
                        "TEXCOORD_0" : 2
                    },
                    "indices" : 3,
                    "material" : 0
                },
                {
                    "attributes" : {
                        "POSITION" : 4,
                        "NORMAL" : 5,
                        "TEXCOORD_0" : 6
                    },
                    "indices" : 7,
                    "material" : 1
                },
                {
                    "attributes" : {
                        "POSITION" : 8,
                        "NORMAL" : 9,
                        "TEXCOORD_0" : 10
                    },
                    "indices" : 11,
                    "material" : 2
                },
                {
                    "attributes" : {
                        "POSITION" : 12,
                        "NORMAL" : 13,
                        "TEXCOORD_0" : 14
                    },
                    "indices" : 15,
                    "material" : 3
                }
            ]
        },
        {
            "name" : "Circle.008",
            "primitives" : [
                {
                    "attributes" : {
                        "POSITION" : 16,
                        "NORMAL" : 17,
                        "TEXCOORD_0" : 18
                    },
                    "indices" : 19,
                    "material" : 4
                }
            ]
        },
        {
            "name" : "Circle.012",
            "primitives" : [
                {
                    "attributes" : {
                        "POSITION" : 20,
                        "NORMAL" : 21
                    },
                    "indices" : 22,
                    "material" : 1
                },
                {
                    "attributes" : {
                        "POSITION" : 23,
                        "NORMAL" : 24
                    },
                    "indices" : 25,
                    "material" : 0
                }
            ]
        }
    ],
    "accessors" : [
        {
            "bufferView" : 0,
            "componentType" : 5126,
            "count" : 7607,
            "max" : [
                8.657732009887695,
                3.8428730964660645,
                1.2890288829803467
            ],
            "min" : [
                -1.3498024940490723,
                0.08028626441955566,
                -1.2890288829803467
            ],
            "type" : "VEC3"
        },
        {
            "bufferView" : 1,
            "componentType" : 5126,
            "count" : 7607,
            "type" : "VEC3"
        },
        {
            "bufferView" : 2,
            "componentType" : 5126,
            "count" : 7607,
            "type" : "VEC2"
        },
        {
            "bufferView" : 3,
            "componentType" : 5123,
            "count" : 12822,
            "type" : "SCALAR"
        },
        {
            "bufferView" : 4,
            "componentType" : 5126,
            "count" : 2324,
            "max" : [
                8.23675537109375,
                3.6500730514526367,
                1.4105080366134644
            ],
            "min" : [
                -1.3756709098815918,
                0.0963982343673706,
                -1.4105080366134644
            ],
            "type" : "VEC3"
        },
        {
            "bufferView" : 5,
            "componentType" : 5126,
            "count" : 2324,
            "type" : "VEC3"
        },
        {
            "bufferView" : 6,
            "componentType" : 5126,
            "count" : 2324,
            "type" : "VEC2"
        },
        {
            "bufferView" : 7,
            "componentType" : 5123,
            "count" : 4068,
            "type" : "SCALAR"
        },
        {
            "bufferView" : 8,
            "componentType" : 5126,
            "count" : 3480,
            "max" : [
                8.094216346740723,
                2.5435736179351807,
                1.9525842666625977
            ],
            "min" : [
                -0.9399161338806152,
                0.4728320837020874,
                -1.9525842666625977
            ],
            "type" : "VEC3"
        },
        {
            "bufferView" : 9,
            "componentType" : 5126,
            "count" : 3480,
            "type" : "VEC3"
        },
        {
            "bufferView" : 10,
            "componentType" : 5126,
            "count" : 3480,
            "type" : "VEC2"
        },
        {
            "bufferView" : 11,
            "componentType" : 5123,
            "count" : 6588,
            "type" : "SCALAR"
        },
        {
            "bufferView" : 12,
            "componentType" : 5126,
            "count" : 605,
            "max" : [
                8.568560600280762,
                3.017918825149536,
                0.8663138747215271
            ],
            "min" : [
                -1.3915858268737793,
                -0.0015131235122680664,
                -0.8663138747215271
            ],
            "type" : "VEC3"
        },
        {
            "bufferView" : 13,
            "componentType" : 5126,
            "count" : 605,
            "type" : "VEC3"
        },
        {
            "bufferView" : 14,
            "componentType" : 5126,
            "count" : 605,
            "type" : "VEC2"
        },
        {
            "bufferView" : 15,
            "componentType" : 5123,
            "count" : 1536,
            "type" : "SCALAR"
        },
        {
            "bufferView" : 16,
            "componentType" : 5126,
            "count" : 3648,
            "max" : [
                6.169085502624512,
                4.484124183654785,
                1.9248069524765015
            ],
            "min" : [
                0.7945609092712402,
                1.0299969911575317,
                -1.8718819618225098
            ],
            "type" : "VEC3"
        },
        {
            "bufferView" : 17,
            "componentType" : 5126,
            "count" : 3648,
            "type" : "VEC3"
        },
        {
            "bufferView" : 18,
            "componentType" : 5126,
            "count" : 3648,
            "type" : "VEC2"
        },
        {
            "bufferView" : 19,
            "componentType" : 5123,
            "count" : 15882,
            "type" : "SCALAR"
        },
        {
            "bufferView" : 20,
            "componentType" : 5126,
            "count" : 512,
            "max" : [
                3.2313525676727295,
                3.8625996112823486,
                0.5007696747779846
            ],
            "min" : [
                2.1903421878814697,
                3.7125918865203857,
                -0.5405265688896179
            ],
            "type" : "VEC3"
        },
        {
            "bufferView" : 21,
            "componentType" : 5126,
            "count" : 512,
            "type" : "VEC3"
        },
        {
            "bufferView" : 22,
            "componentType" : 5123,
            "count" : 1608,
            "type" : "SCALAR"
        },
        {
            "bufferView" : 23,
            "componentType" : 5126,
            "count" : 432,
            "max" : [
                3.1855790615081787,
                3.857861280441284,
                0.45448294281959534
            ],
            "min" : [
                2.2361156940460205,
                3.7163825035095215,
                -0.49423980712890625
            ],
            "type" : "VEC3"
        },
        {
            "bufferView" : 24,
            "componentType" : 5126,
            "count" : 432,
            "type" : "VEC3"
        },
        {
            "bufferView" : 25,
            "componentType" : 5123,
            "count" : 1416,
            "type" : "SCALAR"
        }
    ],
    "bufferViews" : [
        {
            "buffer" : 0,
            "byteLength" : 91284,
            "byteOffset" : 0
        },
        {
            "buffer" : 0,
            "byteLength" : 91284,
            "byteOffset" : 91284
        },
        {
            "buffer" : 0,
            "byteLength" : 60856,
            "byteOffset" : 182568
        },
        {
            "buffer" : 0,
            "byteLength" : 25644,
            "byteOffset" : 243424
        },
        {
            "buffer" : 0,
            "byteLength" : 27888,
            "byteOffset" : 269068
        },
        {
            "buffer" : 0,
            "byteLength" : 27888,
            "byteOffset" : 296956
        },
        {
            "buffer" : 0,
            "byteLength" : 18592,
            "byteOffset" : 324844
        },
        {
            "buffer" : 0,
            "byteLength" : 8136,
            "byteOffset" : 343436
        },
        {
            "buffer" : 0,
            "byteLength" : 41760,
            "byteOffset" : 351572
        },
        {
            "buffer" : 0,
            "byteLength" : 41760,
            "byteOffset" : 393332
        },
        {
            "buffer" : 0,
            "byteLength" : 27840,
            "byteOffset" : 435092
        },
        {
            "buffer" : 0,
            "byteLength" : 13176,
            "byteOffset" : 462932
        },
        {
            "buffer" : 0,
            "byteLength" : 7260,
            "byteOffset" : 476108
        },
        {
            "buffer" : 0,
            "byteLength" : 7260,
            "byteOffset" : 483368
        },
        {
            "buffer" : 0,
            "byteLength" : 4840,
            "byteOffset" : 490628
        },
        {
            "buffer" : 0,
            "byteLength" : 3072,
            "byteOffset" : 495468
        },
        {
            "buffer" : 0,
            "byteLength" : 43776,
            "byteOffset" : 498540
        },
        {
            "buffer" : 0,
            "byteLength" : 43776,
            "byteOffset" : 542316
        },
        {
            "buffer" : 0,
            "byteLength" : 29184,
            "byteOffset" : 586092
        },
        {
            "buffer" : 0,
            "byteLength" : 31764,
            "byteOffset" : 615276
        },
        {
            "buffer" : 0,
            "byteLength" : 6144,
            "byteOffset" : 647040
        },
        {
            "buffer" : 0,
            "byteLength" : 6144,
            "byteOffset" : 653184
        },
        {
            "buffer" : 0,
            "byteLength" : 3216,
            "byteOffset" : 659328
        },
        {
            "buffer" : 0,
            "byteLength" : 5184,
            "byteOffset" : 662544
        },
        {
            "buffer" : 0,
            "byteLength" : 5184,
            "byteOffset" : 667728
        },
        {
            "buffer" : 0,
            "byteLength" : 2832,
            "byteOffset" : 672912
        }
    ],
    "buffers" : [
        {
            "byteLength" : 675744,
            "uri" : "data:application/octet-stream;base64,"
        }
    ]
}
